<svg width="17" height="17" viewBox="0 0 17 17" fill="none" xmlns="http://www.w3.org/2000/svg">
<path d="M8.125 0C6.51803 0 4.94714 0.476523 3.611 1.36931C2.27485 2.2621 1.23344 3.53105 0.618482 5.0157C0.00352044 6.50035 -0.157382 8.13401 0.156123 9.71011C0.469628 11.2862 1.24346 12.7339 2.37976 13.8702C3.51606 15.0065 4.9638 15.7804 6.53989 16.0939C8.11599 16.4074 9.74966 16.2465 11.2343 15.6315C12.719 15.0166 13.9879 13.9752 14.8807 12.639C15.7735 11.3029 16.25 9.73197 16.25 8.125C16.2477 5.97081 15.391 3.90551 13.8677 2.38227C12.3445 0.85903 10.2792 0.00227486 8.125 0ZM6.06485 11.25H10.1852C9.76563 12.6828 9.0625 13.9742 8.125 14.9914C7.1875 13.9742 6.48438 12.6828 6.06485 11.25ZM5.78125 10C5.57396 8.75859 5.57396 7.49141 5.78125 6.25H10.4688C10.676 7.49141 10.676 8.75859 10.4688 10H5.78125ZM1.25 8.125C1.24946 7.49097 1.33702 6.85993 1.51016 6.25H4.51485C4.32839 7.49305 4.32839 8.75695 4.51485 10H1.51016C1.33702 9.39007 1.24946 8.75903 1.25 8.125ZM10.1852 5H6.06485C6.48438 3.56719 7.1875 2.27578 8.125 1.25859C9.0625 2.27578 9.76563 3.56719 10.1852 5ZM11.7352 6.25H14.7398C15.0867 7.47593 15.0867 8.77407 14.7398 10H11.7352C11.9216 8.75695 11.9216 7.49305 11.7352 6.25ZM14.2477 5H11.4797C11.1607 3.74493 10.6251 2.55519 9.89688 1.48438C10.8272 1.73439 11.695 2.17635 12.4443 2.78182C13.1936 3.38729 13.8079 4.14288 14.2477 5ZM6.35313 1.48438C5.62492 2.55519 5.08927 3.74493 4.77032 5H2.00235C2.44213 4.14288 3.05643 3.38729 3.80574 2.78182C4.55505 2.17635 5.42278 1.73439 6.35313 1.48438ZM2.00235 11.25H4.77032C5.08927 12.5051 5.62492 13.6948 6.35313 14.7656C5.42278 14.5156 4.55505 14.0737 3.80574 13.4682C3.05643 12.8627 2.44213 12.1071 2.00235 11.25ZM9.89688 14.7656C10.6251 13.6948 11.1607 12.5051 11.4797 11.25H14.2477C13.8079 12.1071 13.1936 12.8627 12.4443 13.4682C11.695 14.0737 10.8272 14.5156 9.89688 14.7656Z" fill="white"/>
</svg>
