<svg width="116" height="37" viewBox="0 0 116 37" fill="none" xmlns="http://www.w3.org/2000/svg">
<path d="M93.6911 32.8179V25.0964H91.1719V32.8179C91.1719 33.1143 91.2091 33.4016 91.2775 33.6759C91.5817 34.8821 92.5107 35.8313 93.6911 36.1421C93.9596 36.212 94.2407 36.25 94.5308 36.25H104.607V33.6759H94.5308C94.0674 33.6759 93.6911 33.2914 93.6911 32.8179Z" fill="white"/>
<path d="M54.2283 29.3859H45.8317V25.0958H43.3125V36.2494H45.8317V31.96H54.2283V36.2494H56.7475V25.0958H54.2283V29.3859Z" fill="white"/>
<path d="M38.2478 25.204C37.9793 25.1341 37.6982 25.0961 37.4081 25.0961H30.691C30.4009 25.0961 30.1197 25.1341 29.8512 25.204C28.6708 25.5149 27.7419 26.4641 27.4376 27.6702C27.3692 27.9438 27.332 28.2319 27.332 28.5283V32.8177C27.332 33.1141 27.3692 33.4013 27.4376 33.6757C27.7419 34.8818 28.6708 35.831 29.8512 36.1419C30.1197 36.2118 30.4009 36.2498 30.691 36.2498H37.4081C37.6982 36.2498 37.9793 36.2118 38.2478 36.1419C39.4282 35.831 40.3572 34.8818 40.6614 33.6757C40.7299 33.4013 40.767 33.1141 40.767 32.8177V31.9596H38.2478V32.8177C38.2478 33.2911 37.8715 33.6757 37.4081 33.6757H30.691C30.2276 33.6757 29.8512 33.2911 29.8512 32.8177V28.5283C29.8512 28.0548 30.2276 27.6702 30.691 27.6702H37.4081C37.8715 27.6702 38.2478 28.0548 38.2478 28.5283V29.3863H40.767V28.5283C40.767 28.2319 40.7299 27.9438 40.6614 27.6702C40.3572 26.4641 39.4282 25.5149 38.2478 25.204Z" fill="white"/>
<path d="M14.7515 27.67H22.3084L24.8276 25.0959H14.7515C12.8965 25.0959 11.3926 26.6327 11.3926 28.5281C11.3926 30.4235 12.8965 31.9602 14.7515 31.9602H21.4686C21.9328 31.9602 22.3084 32.344 22.3084 32.8175C22.3084 33.2917 21.9328 33.6755 21.4686 33.6755H13.9118L11.3926 36.2496H21.4686C23.3237 36.2496 24.8276 34.7129 24.8276 32.8175C24.8276 30.9228 23.3237 29.3861 21.4686 29.3861H14.7515C14.2881 29.3861 13.9118 29.0023 13.9118 28.5281C13.9118 28.0546 14.2881 27.67 14.7515 27.67Z" fill="white"/>
<path d="M70.1814 25.204C69.9129 25.1341 69.6318 25.0961 69.3417 25.0961H62.6246C62.3345 25.0961 62.0533 25.1341 61.7848 25.204C60.6044 25.5149 59.6755 26.4641 59.3712 27.6702C59.3028 27.9438 59.2656 28.2319 59.2656 28.5283V32.8177C59.2656 33.1141 59.3028 33.4013 59.3712 33.6757C59.6755 34.8818 60.6044 35.831 61.7848 36.1419C62.0533 36.2118 62.3345 36.2498 62.6246 36.2498H69.3417C69.6318 36.2498 69.9129 36.2118 70.1814 36.1419C71.3618 35.831 72.2908 34.8818 72.595 33.6757C72.6634 33.4013 72.7006 33.1141 72.7006 32.8177V28.5283C72.7006 28.2319 72.6634 27.9438 72.595 27.6702C72.2908 26.4641 71.3618 25.5149 70.1814 25.204ZM70.1814 32.8177C70.1814 33.2911 69.8051 33.6757 69.3417 33.6757H62.6246C62.1612 33.6757 61.7848 33.2911 61.7848 32.8177V28.5283C61.7848 28.0548 62.1612 27.6702 62.6246 27.6702H69.3417C69.8051 27.6702 70.1814 28.0548 70.1814 28.5283V32.8177Z" fill="white"/>
<path d="M86.1346 25.204C85.866 25.1341 85.5849 25.0961 85.2948 25.0961H78.5777C78.2876 25.0961 78.0065 25.1341 77.738 25.204C76.5576 25.5149 75.6286 26.4641 75.3244 27.6702C75.2559 27.9438 75.2188 28.2319 75.2188 28.5283V32.8177C75.2188 33.1141 75.2559 33.4013 75.3244 33.6757C75.6286 34.8818 76.5576 35.831 77.738 36.1419C78.0065 36.2118 78.2876 36.2498 78.5777 36.2498H85.2948C85.5849 36.2498 85.866 36.2118 86.1346 36.1419C87.3149 35.831 88.2439 34.8818 88.5481 33.6757C88.6166 33.4013 88.6538 33.1141 88.6538 32.8177V28.5283C88.6538 28.2319 88.6166 27.9438 88.5481 27.6702C88.2439 26.4641 87.3149 25.5149 86.1346 25.204ZM86.1346 32.8177C86.1346 33.2911 85.7582 33.6757 85.2948 33.6757H78.5777C78.1143 33.6757 77.738 33.2911 77.738 32.8177V28.5283C77.738 28.0548 78.1143 27.6702 78.5777 27.6702H85.2948C85.7582 27.6702 86.1346 28.0548 86.1346 28.5283V32.8177Z" fill="white"/>
<path d="M85.9807 0.175559C85.5449 0.0615601 85.0875 0 84.6159 0H73.7001C73.2293 0 72.7718 0.0615601 72.336 0.175559C70.4178 0.680954 68.9086 2.22298 68.414 4.183C68.3024 4.62836 68.2422 5.09575 68.2422 5.57683V12.5482C68.2422 13.0293 68.3024 13.4967 68.414 13.9428C68.9086 15.9021 70.4178 17.4449 72.336 17.9495C72.7718 18.0635 73.2293 18.1251 73.7001 18.1251H84.6159C85.0875 18.1251 85.5449 18.0635 85.9807 17.9495C87.899 17.4449 89.4081 15.9021 89.9027 13.9428C90.0143 13.4967 90.0738 13.0293 90.0738 12.5482V11.1537H85.9807V12.5482C85.9807 13.3181 85.3694 13.9428 84.6159 13.9428H73.7001C72.9474 13.9428 72.336 13.3181 72.336 12.5482V5.57683C72.336 4.80771 72.9474 4.183 73.7001 4.183H84.6159C85.3694 4.183 85.9807 4.80771 85.9807 5.57683V6.97142H90.0738V5.57683C90.0738 5.09575 90.0143 4.62836 89.9027 4.183C89.4081 2.22298 87.899 0.680954 85.9807 0.175559Z" fill="white"/>
<path d="M99.6259 13.9426C98.8724 13.9426 98.2618 13.3178 98.2618 12.5487V11.1541H111.906V6.97114H94.168V12.5487C94.168 13.0298 94.2282 13.4972 94.3398 13.9426C94.946 16.3479 97.0821 18.1248 99.6259 18.1248H116L111.906 13.9426H99.6259Z" fill="white"/>
<path d="M116 0.000370502H94.1684V4.18337H111.906L116 0.000370502Z" fill="white"/>
<path d="M16.3737 13.9425H4.09306L0 18.1248H16.3737C19.3883 18.1248 21.8316 15.6282 21.8316 12.5487C21.8316 9.46846 19.3883 6.97112 16.3737 6.97112H5.4579C4.70445 6.97112 4.09306 6.34793 4.09306 5.57729C4.09306 4.80742 4.70445 4.18271 5.4579 4.18271H17.7378L21.8316 0.000465393H5.4579C2.44334 0.000465393 0 2.49704 0 5.57729C0 8.65755 2.44334 11.1541 5.4579 11.1541H16.3737C17.1279 11.1541 17.7378 11.7788 17.7378 12.5487C17.7378 13.3186 17.1279 13.9425 16.3737 13.9425Z" fill="white"/>
<path d="M47.7769 5.5772C47.7769 2.49695 45.3336 0.000374794 42.319 0.000374794H25.9453V4.18338H42.319C43.0725 4.18338 43.6831 4.80733 43.6831 5.5772C43.6831 6.34784 43.0725 6.97103 42.319 6.97103H25.9453V18.1247H30.0384V11.154H42.319C45.3336 11.154 47.7769 8.65746 47.7769 5.5772Z" fill="white"/>
<path d="M56.6448 21.8242C57.5054 20.7678 58.1346 19.5078 58.4537 18.1253H54.8359C55.155 19.5078 55.7843 20.7678 56.6448 21.8242Z" fill="white"/>
<path d="M61.4206 16.7309V18.1247H68.2433L58.4001 1.0142C58.0423 0.406965 57.3893 0.000368595 56.6447 0.000368595C55.9002 0.000368595 55.2486 0.406965 54.8909 1.0142L45.0469 18.1247H51.8696V16.7309L54.5978 13.9424L54.5986 12.7607C54.5986 10.5597 55.3662 8.54193 56.6447 6.97102C57.924 8.54193 58.6916 10.5597 58.6916 12.7607V13.9424L61.4206 16.7309Z" fill="white"/>
</svg>
