<svg width="32" height="39" viewBox="0 0 32 39" fill="none" xmlns="http://www.w3.org/2000/svg">
<path fill-rule="evenodd" clip-rule="evenodd" d="M23.0955 6.9973C27.7433 11.6451 27.7433 19.1928 23.0955 23.8406C18.4478 28.4884 10.9 28.4884 6.25224 23.8406C1.60448 19.1928 1.60448 11.6451 6.25224 6.9973C10.9 2.34953 18.4478 2.34953 23.0955 6.9973Z" stroke="#008ED6" stroke-width="2.55208" stroke-miterlimit="2" stroke-linecap="round" stroke-linejoin="round"/>
<path d="M28.8173 1.276L25.7274 4.36583C31.8282 10.4658 31.8282 20.3717 25.7274 26.4717C19.6274 32.5725 9.72153 32.5725 3.62153 26.4717L1.27606 28.8172" stroke="#008ED6" stroke-width="2.55208" stroke-miterlimit="2" stroke-linecap="round" stroke-linejoin="round"/>
<path d="M12.8136 31.0503V32.7698C12.8136 34.0523 12.3044 35.2812 11.3978 36.1878C10.9557 36.63 10.5805 37.0051 10.5805 37.0051" stroke="#008ED6" stroke-width="2.55208" stroke-miterlimit="2" stroke-linecap="round" stroke-linejoin="round"/>
<path d="M16.5353 31.0503V32.7698C16.5353 34.0523 17.0445 35.2812 17.9511 36.1878C18.3933 36.63 18.7684 37.0051 18.7684 37.0051" stroke="#008ED6" stroke-width="2.55208" stroke-miterlimit="2" stroke-linecap="round" stroke-linejoin="round"/>
<path d="M26.5847 5.29333L26.1356 5.74245" stroke="#008ED6" stroke-width="2.55208" stroke-miterlimit="2" stroke-linecap="round" stroke-linejoin="round"/>
<path d="M7.19188 24.6853L4.5509 27.3263" stroke="#008ED6" stroke-width="2.55208" stroke-miterlimit="2" stroke-linecap="round" stroke-linejoin="round"/>
<path d="M3.88129 10.9528C5.79503 11.6703 7.36637 13.0853 8.28044 14.9135C8.57074 15.4926 8.8521 16.0561 9.06797 16.4878C9.31807 16.9873 9.80562 17.323 10.3602 17.3795C10.3646 17.3393 10.3646 17.3393 10.3646 17.3393C11.4752 17.4964 12.3938 18.2854 12.7161 19.3603C13.0384 20.4351 12.7056 21.5993 11.8645 22.3414C11.3345 22.7873 10.7725 23.1379 10.2083 23.2346" stroke="#008ED6" stroke-width="2.55208" stroke-miterlimit="2" stroke-linecap="round" stroke-linejoin="round"/>
<path d="M20.63 9.46399V11.2579C20.63 11.5355 20.5035 11.7983 20.2869 11.9717H20.2861C19.4145 12.6692 19.186 13.8996 19.748 14.8643C20.0732 15.4218 20.4276 16.0285 20.7216 16.5331C21.1354 17.2418 21.8426 17.7301 22.6517 17.8648C23.9722 18.0851 25.8405 18.3963 25.8405 18.3963" stroke="#008ED6" stroke-width="2.55208" stroke-miterlimit="2" stroke-linecap="round" stroke-linejoin="round"/>
</svg>
